<svg width="24" height="24" viewBox="0 0 24 24" fill="none" xmlns="http://www.w3.org/2000/svg">
<path d="M19.2001 6.72003H4.80008C4.39208 6.72003 4.08008 6.40803 4.08008 6.00003C4.08008 5.59203 4.39208 5.28003 4.80008 5.28003H19.2001C19.6081 5.28003 19.9201 5.59203 19.9201 6.00003C19.9201 6.40803 19.6081 6.72003 19.2001 6.72003ZM19.2001 12.72H4.80008C4.39208 12.72 4.08008 12.408 4.08008 12C4.08008 11.592 4.39208 11.28 4.80008 11.28H19.2001C19.6081 11.28 19.9201 11.592 19.9201 12C19.9201 12.408 19.6081 12.72 19.2001 12.72ZM19.2001 18.72H4.80008C4.39208 18.72 4.08008 18.408 4.08008 18C4.08008 17.592 4.39208 17.28 4.80008 17.28H19.2001C19.6081 17.28 19.9201 17.592 19.9201 18C19.9201 18.408 19.6081 18.72 19.2001 18.72Z" fill="#4F6670"/>
</svg>
